<?xml version="1.0" encoding="UTF-8" standalone="yes"?>
<svg version="1.1" width="64" height="64" color-interpolation="linearRGB"
     xmlns:svg="http://www.w3.org/2000/svg" xmlns="http://www.w3.org/2000/svg">
 <g>
  <path style="fill:none; stroke:#000080; stroke-width:4.9148"
        d="M38.37 13.46C45.56 12.94 51.78 18.71 52.27 26.35C52.29 26.66 52.3 26.98 52.3 27.29"
  />
  <path style="fill:#ff0000"
        d="M45.07 23.8C45.07 25.71 43.53 27.26 41.61 27.26C39.7 27.26 38.16 25.71 38.16 23.8C38.16 21.89 39.7 20.34 41.61 20.34C43.53 20.34 45.07 21.89 45.07 23.8z"
  />
  <path style="fill:none; stroke:#ff0000; stroke-width:1.5069"
        d="M45.07 23.8C45.07 25.71 43.53 27.26 41.61 27.26C39.7 27.26 38.16 25.71 38.16 23.8C38.16 21.89 39.7 20.34 41.61 20.34C43.53 20.34 45.07 21.89 45.07 23.8z"
  />
  <path style="fill:none; stroke:#ff0000; stroke-width:5.3121"
        d="M38.14 4.45C49.42 3.6 59.18 13 59.95 25.43C59.98 25.94 59.99 26.45 59.99 26.96"
  />
  <path style="fill:#f2f2f2"
        d="M2.05 30.8H35.61V61.48H2.05V30.8z"
  />
  <path style="fill:none; stroke:#000000; stroke-width:1.2035"
        d="M2.05 30.8H35.61V61.48H2.05V30.8z"
  />
  <path style="fill:none; stroke:#000000; stroke-width:1.2035"
        d="M1.82 31.3L18.48 46.74L35.6 31.46"
  />
 </g>
</svg>
